<?xml version="1.0" encoding="utf-8"?>
<!-- Generator: Adobe Illustrator 15.0.2, SVG Export Plug-In . SVG Version: 6.00 Build 0)  -->
<!DOCTYPE svg PUBLIC "-//W3C//DTD SVG 1.1//EN" "http://www.w3.org/Graphics/SVG/1.1/DTD/svg11.dtd">
<svg version="1.1" id="Layer_1" xmlns="http://www.w3.org/2000/svg" xmlns:xlink="http://www.w3.org/1999/xlink" x="0px" y="0px"
	 width="75px" height="77px" viewBox="0 0 75 77" enable-background="new 0 0 75 77" xml:space="preserve">
<g>
	<g>
		<defs>
			<rect id="SVGID_1_" x="1" y="5.657" width="73" height="65.687"/>
		</defs>
		<clipPath id="SVGID_2_">
			<use xlink:href="#SVGID_1_"  overflow="visible"/>
		</clipPath>
		<g clip-path="url(#SVGID_2_)">
			<defs>
				<rect id="SVGID_3_" x="1" y="5.657" width="73" height="65.687"/>
			</defs>
			<clipPath id="SVGID_4_">
				<use xlink:href="#SVGID_3_"  overflow="visible"/>
			</clipPath>
			<path clip-path="url(#SVGID_4_)" fill="#272E87" d="M25.33,39.921h-1.205c-2.408,0.219-4.047,1.095-4.924,1.643
				c-2.298,1.204-2.298,4.158-2.298,5.253v21.126c0,0.219,0,0.548,0.217,0.548c0.328-0.108,0.219,0,0.549-0.108l1.968-0.549
				c0.219,0,0.328-0.219,0.328-0.438v-8.319c0.985,0.657,2.189,1.313,4.16,1.424h0.768c4.707,0,6.788-4.926,6.788-10.727
				C31.681,44.736,29.709,39.921,25.33,39.921 M24.566,57.762h-0.441c-1.749-0.108-2.953-0.657-4.16-1.313V45.393
				c0-1.203,1.644-2.691,4.271-2.803c0.248-0.043,0.331-0.043,0.548-0.043c3.284,0,3.503,3.941,3.503,7.334
				C28.287,53.822,27.957,57.762,24.566,57.762"/>
			<path clip-path="url(#SVGID_4_)" fill="#F7A500" d="M45.033,14.743h-0.655c-2.517,0.11-5.692,1.205-5.692,1.861
				c0,0.218,0,0.329,0.109,0.546l0.546,1.313c0.094,0.211,0.109,0.218,0.221,0.218c0.438,0,2.225-1.32,4.854-1.32
				c0.109,0,0.071,0.009,0.181,0.009c2.844,0,3.611,1.311,3.611,3.721v1.423c-0.876,0-2.298,0.109-3.83,0.328
				c-3.175,0.548-6.788,2.191-6.788,6.788c0,3.611,1.971,5.693,5.252,5.693h1.535c2.518-0.22,4.158-0.769,4.598-1.096
				c2.08-1.313,2.299-3.832,2.299-5.911v-7.881C51.274,16.933,49.631,14.743,45.033,14.743 M48.208,31.053
				c0,0.656-1.972,1.422-3.83,1.533H43.72c-2.081,0-3.176-1.642-3.176-3.283c0-2.408,1.862-3.395,3.834-3.831
				c1.532-0.438,3.063-0.438,3.83-0.438V31.053z"/>
			<path clip-path="url(#SVGID_4_)" fill="#272E87" d="M64.736,40.795c0-0.328,0.112-0.766-0.218-0.766l-2.19-0.108
				c-0.327,0-0.545,0-0.545,0.219l-0.109,16.419c-1.095,0.984-2.407,1.313-4.379,1.313c-2.518,0.11-4.049-2.519-4.162-5.69
				c-0.218-4.053,0-7.666,0-11.715c0-0.108-0.436-0.438-0.764-0.438h-1.971c0,0-0.438,0.547-0.438,0.658
				c0.109,2.188,0.874,15.761,1.423,16.746c0.219,0.328,0.654,0.986,1.095,1.532c0.437,0.438,0.986,0.768,1.641,1.205
				c1.423,0.875,5.911,0.546,7.664-0.984l0.109,1.859l-0.109,2.081c-0.109,2.082-0.109,5.472-3.284,5.58
				c-2.081,0-3.066-1.312-3.395-0.217c0,0.108-0.327,1.643-0.218,1.859c0.327,0.439,1.313,0.877,3.066,0.987
				c2.295,0.108,4.925-1.095,5.692-2.738c1.309-2.626,1.203-8.756,1.203-11.056L64.736,40.795z"/>
			<path clip-path="url(#SVGID_4_)" fill="#F7A500" d="M28.505,16.822c0-0.217,0.108-0.326,0.108-0.436
				c0-0.218-0.108-0.438-0.437-0.548c-1.094-0.546-3.394-1.205-4.816-1.205c-3.615,0-6.132,2.301-6.132,5.693
				c0,6.131,8.977,5.146,8.977,9.415c0,1.969-1.422,2.955-3.175,2.955c-2.845,0-4.925-1.424-5.253-1.424
				c-0.109,0-0.33,0-0.439,0.331l-0.545,1.313c-0.109,0.109-0.109,0.218-0.109,0.438c0,0.765,4.157,1.972,6.128,1.972
				c3.503,0,6.569-1.972,6.569-5.803c0-6.349-9.086-5.036-9.086-9.525c0-1.969,1.422-2.735,3.066-2.735
				c2.077,0,3.831,1.095,4.048,1.095c0.219,0,0.328-0.109,0.547-0.438L28.505,16.822z"/>
			<path clip-path="url(#SVGID_4_)" fill="#F7A500" d="M34.524,15.837c0-0.329-0.109-0.546-0.545-0.546h-2.081
				c-0.331,0-0.549,0.11-0.549,0.438v18.608c0,0.329,0.218,0.437,0.549,0.437h2.081c0.328,0,0.545-0.108,0.545-0.437V15.837z
				 M35.183,8.065c0-1.313-1.095-2.409-2.408-2.409c-1.426,0-2.517,1.095-2.517,2.409c0,1.424,1.091,2.517,2.517,2.517
				C34.088,10.582,35.183,9.489,35.183,8.065"/>
			<path clip-path="url(#SVGID_4_)" fill="#272E87" d="M40.968,40.085h-0.655c-2.517,0.11-5.692,1.205-5.692,1.861
				c0,0.218,0,0.329,0.109,0.547l0.545,1.313c0.094,0.21,0.11,0.218,0.221,0.218c0.438,0,2.225-1.32,4.854-1.32
				c0.109,0,0.071,0.009,0.181,0.009c2.844,0,3.611,1.312,3.611,3.721v1.424c-0.877,0-2.299,0.108-3.83,0.327
				c-3.175,0.549-6.788,2.191-6.788,6.788c0,3.611,1.971,5.693,5.252,5.693h1.535c2.518-0.221,4.158-0.769,4.598-1.097
				c2.08-1.313,2.299-3.832,2.299-5.91v-7.882C47.209,42.275,45.565,40.085,40.968,40.085 M44.143,56.396
				c0,0.655-1.972,1.422-3.83,1.532h-0.658c-2.081,0-3.175-1.642-3.175-3.282c0-2.408,1.862-3.396,3.833-3.831
				c1.531-0.438,3.063-0.438,3.83-0.438V56.396z"/>
			<path clip-path="url(#SVGID_4_)" fill="#F7A500" d="M8.442,14.743H7.788c-2.517,0.11-5.692,1.205-5.692,1.862
				c0,0.217,0,0.329,0.109,0.546l0.545,1.313c0.093,0.211,0.109,0.218,0.221,0.218c0.438,0,2.225-1.32,4.854-1.32
				c0.109,0,0.071,0.009,0.181,0.009c2.843,0,3.611,1.311,3.611,3.721v1.423c-0.876,0-2.298,0.109-3.83,0.328
				C4.613,23.391,1,25.034,1,29.631c0,3.611,1.971,5.693,5.252,5.693h1.535c2.517-0.22,4.158-0.769,4.598-1.096
				c2.081-1.313,2.299-3.832,2.299-5.911v-7.881C14.684,16.933,13.04,14.743,8.442,14.743 M11.618,31.053
				c0,0.656-1.971,1.422-3.83,1.533H7.129c-2.081,0-3.175-1.642-3.175-3.283c0-2.408,1.862-3.395,3.833-3.831
				c1.532-0.438,3.063-0.438,3.83-0.438V31.053z"/>
			<path clip-path="url(#SVGID_4_)" fill="#272E87" d="M74,42.673c0,0.884-0.313,1.638-0.938,2.263
				c-0.625,0.626-1.38,0.938-2.263,0.938c-0.884,0-1.638-0.313-2.264-0.938c-0.625-0.625-0.938-1.379-0.938-2.263
				c0-0.883,0.313-1.637,0.938-2.261c0.626-0.624,1.38-0.937,2.264-0.937c0.883,0,1.638,0.313,2.263,0.937
				C73.688,41.036,74,41.79,74,42.673 M73.572,42.673c0-0.771-0.271-1.428-0.813-1.972c-0.542-0.543-1.195-0.814-1.961-0.814
				s-1.419,0.271-1.961,0.814c-0.542,0.544-0.813,1.201-0.813,1.972c0,0.771,0.271,1.43,0.813,1.974
				c0.542,0.545,1.195,0.817,1.961,0.817s1.419-0.272,1.961-0.817C73.302,44.103,73.572,43.444,73.572,42.673 M72.639,44.302H71.8
				l-1.048-1.313h-0.454v1.313h-0.613v-3.388h1.033c0.231,0,0.415,0.009,0.55,0.026s0.271,0.065,0.409,0.145
				c0.148,0.084,0.256,0.186,0.322,0.304s0.1,0.271,0.1,0.455c0,0.247-0.068,0.449-0.205,0.607s-0.314,0.281-0.534,0.37
				L72.639,44.302z M71.425,41.885c0-0.092-0.015-0.171-0.044-0.237c-0.029-0.067-0.081-0.124-0.155-0.171
				c-0.062-0.039-0.131-0.065-0.207-0.079s-0.175-0.021-0.296-0.021h-0.425v1.145h0.362c0.118,0,0.229-0.012,0.332-0.035
				s0.188-0.063,0.252-0.12c0.064-0.058,0.11-0.122,0.139-0.196S71.425,42,71.425,41.885"/>
		</g>
	</g>
</g>
</svg>
