<svg id="Layer_1" data-name="Layer 1" xmlns="http://www.w3.org/2000/svg" viewBox="0 0 73 65.69"><defs><style>.cls-1{fill:#fff;}</style></defs><title>asiapay_logo_ white</title><path class="cls-1" d="M25.33,39.92h-1.2a11.16,11.16,0,0,0-4.93,1.64c-2.3,1.21-2.3,4.16-2.3,5.26V67.94c0,.22,0,.55.22.55s.22,0,.55-.11l2-.55c.22,0,.32-.22.32-.43V59.08a7.81,7.81,0,0,0,4.16,1.42h.77c4.71,0,6.79-4.93,6.79-10.73,0-5-2-9.85-6.35-9.85m-.76,17.84h-.44A9.41,9.41,0,0,1,20,56.45V45.39c0-1.2,1.64-2.69,4.27-2.8a2.6,2.6,0,0,1,.54,0c3.29,0,3.51,3.94,3.51,7.33,0,3.94-.33,7.88-3.72,7.88" transform="translate(-1 -5.66)"/><path class="cls-1" d="M45,14.74h-.65c-2.52.11-5.69,1.21-5.69,1.86a1,1,0,0,0,.11.55l.54,1.31c.1.21.11.22.22.22.44,0,2.23-1.32,4.86-1.32h.18c2.84,0,3.61,1.31,3.61,3.72v1.42a29.67,29.67,0,0,0-3.83.33c-3.18.55-6.79,2.19-6.79,6.79,0,3.61,2,5.69,5.25,5.69h1.54A11.74,11.74,0,0,0,49,34.23c2.08-1.32,2.29-3.83,2.29-5.91V20.44c0-3.51-1.64-5.7-6.24-5.7m3.18,16.31c0,.66-2,1.42-3.83,1.54h-.66a3.14,3.14,0,0,1-3.18-3.29c0-2.41,1.87-3.39,3.84-3.83A13.86,13.86,0,0,1,48.21,25Z" transform="translate(-1 -5.66)"/><path class="cls-1" d="M64.74,40.79c0-.32.11-.76-.22-.76l-2.19-.11c-.33,0-.55,0-.55.22l-.11,16.42a6,6,0,0,1-4.38,1.31c-2.51.11-4-2.52-4.16-5.69-.21-4,0-7.66,0-11.71a1,1,0,0,0-.76-.44h-2a3.42,3.42,0,0,0-.44.66c.11,2.19.87,15.76,1.42,16.74.22.33.66,1,1.1,1.54a11.27,11.27,0,0,0,1.64,1.2c1.42.88,5.91.55,7.66-1l.11,1.86-.11,2.08c-.11,2.08-.11,5.47-3.28,5.58-2.08,0-3.07-1.32-3.4-.22a9.61,9.61,0,0,0-.21,1.86c.32.44,1.31.87,3.06,1,2.3.11,4.93-1.09,5.69-2.73C65,66,64.85,59.84,64.85,57.54Z" transform="translate(-1 -5.66)"/><path class="cls-1" d="M28.5,16.82c0-.21.11-.32.11-.43a.56.56,0,0,0-.43-.55,13.57,13.57,0,0,0-4.82-1.21c-3.62,0-6.13,2.3-6.13,5.7,0,6.13,9,5.14,9,9.41a2.87,2.87,0,0,1-3.17,3,13.32,13.32,0,0,1-5.25-1.43.41.41,0,0,0-.44.33l-.55,1.32c-.11.11-.11.21-.11.43,0,.77,4.16,2,6.13,2,3.51,0,6.57-2,6.57-5.81,0-6.35-9.08-5-9.08-9.52,0-2,1.42-2.74,3.06-2.74a10.92,10.92,0,0,1,4.05,1.1c.22,0,.33-.11.55-.44Z" transform="translate(-1 -5.66)"/><path class="cls-1" d="M34.52,15.84c0-.33-.11-.55-.54-.55H31.9c-.33,0-.55.11-.55.44V34.34c0,.33.22.43.55.43H34c.33,0,.54-.1.54-.43Zm.66-7.78a2.46,2.46,0,0,0-4.92,0,2.46,2.46,0,1,0,4.92,0" transform="translate(-1 -5.66)"/><path class="cls-1" d="M41,40.08h-.66c-2.51.11-5.69,1.21-5.69,1.87a1,1,0,0,0,.11.54l.54,1.32c.1.21.11.21.23.21.43,0,2.22-1.32,4.85-1.32h.18c2.85,0,3.61,1.31,3.61,3.72v1.43a31.23,31.23,0,0,0-3.83.32c-3.17.55-6.79,2.2-6.79,6.79,0,3.61,2,5.7,5.26,5.7h1.53a11.68,11.68,0,0,0,4.6-1.1c2.08-1.31,2.3-3.83,2.3-5.91V45.78c0-3.5-1.65-5.7-6.24-5.7M44.14,56.4c0,.65-2,1.42-3.83,1.53h-.65a3.12,3.12,0,0,1-3.18-3.28c0-2.41,1.86-3.4,3.83-3.84a14.21,14.21,0,0,1,3.83-.43Z" transform="translate(-1 -5.66)"/><path class="cls-1" d="M8.44,14.74H7.79C5.27,14.85,2.1,16,2.1,16.6a1,1,0,0,0,.11.55l.54,1.31c.09.21.11.22.22.22.44,0,2.23-1.32,4.86-1.32H8c2.84,0,3.61,1.31,3.61,3.72v1.43a29.35,29.35,0,0,0-3.83.32C4.61,23.39,1,25,1,29.63c0,3.61,2,5.69,5.25,5.69H7.79a11.67,11.67,0,0,0,4.6-1.09c2.08-1.31,2.29-3.83,2.29-5.91V20.44c0-3.51-1.64-5.7-6.24-5.7m3.18,16.31c0,.66-2,1.42-3.83,1.54H7.13A3.14,3.14,0,0,1,4,29.3c0-2.41,1.87-3.39,3.84-3.83A13.86,13.86,0,0,1,11.62,25v6Z" transform="translate(-1 -5.66)"/><path class="cls-1" d="M74,42.67a3.2,3.2,0,1,1-5.47-2.26,3.2,3.2,0,0,1,4.53,0A3.07,3.07,0,0,1,74,42.67m-.43,0a2.77,2.77,0,0,0-4.73-2,2.66,2.66,0,0,0-.82,2,2.7,2.7,0,0,0,.82,2,2.78,2.78,0,0,0,3.92,0,2.73,2.73,0,0,0,.81-2m-.93,1.63H71.8l-1-1.31H70.3V44.3h-.61V40.91h1a4,4,0,0,1,.55,0,1.18,1.18,0,0,1,.41.14.87.87,0,0,1,.32.31,1,1,0,0,1-.11,1.06,1.3,1.3,0,0,1-.53.37Zm-1.21-2.42a.52.52,0,0,0-.05-.23.35.35,0,0,0-.15-.17A.54.54,0,0,0,71,41.4a1.32,1.32,0,0,0-.3,0H70.3v1.14h.36a1.69,1.69,0,0,0,.33,0,.65.65,0,0,0,.25-.12.52.52,0,0,0,.14-.2.76.76,0,0,0,.05-.29" transform="translate(-1 -5.66)"/></svg>