<?xml version="1.0" encoding="utf-8"?>
<!-- Generator: Adobe Illustrator 15.0.2, SVG Export Plug-In . SVG Version: 6.00 Build 0)  -->
<!DOCTYPE svg PUBLIC "-//W3C//DTD SVG 1.1//EN" "http://www.w3.org/Graphics/SVG/1.1/DTD/svg11.dtd">
<svg version="1.1" xmlns="http://www.w3.org/2000/svg" xmlns:xlink="http://www.w3.org/1999/xlink" x="0px" y="0px" width="50px"
	 height="50px" viewBox="0 0 50 50" enable-background="new 0 0 50 50" xml:space="preserve">
<g id="Layer_1" display="none">
	<path display="inline" fill="#FFFFFF" d="M32.788,8.333h5.302V0h-6.583l0,0h-1.361c0,0-4.995-0.124-8.18,4.014
		c0,0-2.169,2.045-2.202,8.032h-0.001v6.25H11.91v8.847h7.853V50h9.057V27.144h7.79l1.086-8.847h-8.876v-6.25h-0.002
		C28.839,11.349,29.149,8.27,32.788,8.333z"/>
</g>
<g id="Layer_2" display="none">
	<path display="inline" fill="#FFFFFF" d="M40.384,9H10.229C4.464,9,2,13.712,2,19.479V30.52C2,36.287,4.709,41,10.477,41h29.666
		C45.905,41,48,36.287,48,30.52V19.479C48,13.712,46.152,9,40.384,9z M20,31.771v-13.01l12.463,6.506L20,31.771z"/>
</g>
<g id="Layer_3" display="none">
	<g display="inline">
		<path fill="#FFFFFF" d="M6.592,18.618h7.89V44h-7.89V18.618z M10.539,6c2.52,0,4.569,2.051,4.569,4.578
			c0,2.525-2.05,4.571-4.569,4.571c-2.53,0-4.573-2.046-4.573-4.571C5.966,8.051,8.009,6,10.539,6"/>
		<path fill="#FFFFFF" d="M19.43,18.618h7.567v3.473h0.109c1.053-1.998,3.625-4.1,7.464-4.1c7.989,0,9.464,5.255,9.464,12.088V44
			h-7.887V31.657c0-2.944-0.051-6.731-4.1-6.731c-4.104,0-4.732,3.211-4.732,6.521V44H19.43V18.618z"/>
	</g>
</g>
<g id="Layer_4">
	<path fill="#FFFFFF" d="M17.798,42.5c16.253,0,25.14-13.467,25.14-25.141c0-0.382-0.006-0.763-0.026-1.141
		c1.728-1.246,3.226-2.807,4.406-4.576c-1.581,0.702-3.287,1.176-5.072,1.391c1.825-1.095,3.223-2.826,3.887-4.888
		c-1.706,1.01-3.601,1.75-5.611,2.147C38.904,8.573,36.615,7.5,34.07,7.5c-4.879,0-8.833,3.958-8.833,8.833
		c0,0.694,0.078,1.365,0.227,2.018c-7.342-0.374-13.857-3.888-18.212-9.232c-0.757,1.304-1.196,2.82-1.196,4.438
		c0,3.065,1.558,5.771,3.934,7.356c-1.449-0.046-2.814-0.443-4.003-1.106c-0.001,0.04-0.001,0.075-0.001,0.113
		c0,4.281,3.047,7.853,7.085,8.662c-0.737,0.201-1.521,0.313-2.325,0.313c-0.57,0-1.123-0.06-1.662-0.164
		c1.127,3.515,4.389,6.069,8.252,6.141c-3.023,2.371-6.833,3.782-10.974,3.782c-0.711,0-1.413-0.041-2.106-0.123
		C8.164,41.037,12.807,42.5,17.798,42.5"/>
</g>
</svg>
