<?xml version="1.0" encoding="utf-8"?>
<!-- Generator: Adobe Illustrator 15.0.2, SVG Export Plug-In . SVG Version: 6.00 Build 0)  -->
<!DOCTYPE svg PUBLIC "-//W3C//DTD SVG 1.1//EN" "http://www.w3.org/Graphics/SVG/1.1/DTD/svg11.dtd">
<svg version="1.1" xmlns="http://www.w3.org/2000/svg" xmlns:xlink="http://www.w3.org/1999/xlink" x="0px" y="0px" width="50px"
	 height="50px" viewBox="0 0 50 50" enable-background="new 0 0 50 50" xml:space="preserve">
<g id="Layer_1" display="none">
	<path display="inline" fill="#FFFFFF" d="M32.788,8.333h5.302V0h-6.583l0,0h-1.361c0,0-4.995-0.124-8.18,4.014
		c0,0-2.169,2.045-2.202,8.032h-0.001v6.25H11.91v8.847h7.853V50h9.057V27.144h7.79l1.086-8.847h-8.876v-6.25h-0.002
		C28.839,11.349,29.149,8.27,32.788,8.333z"/>
</g>
<g id="Layer_2">
	<path fill="#FFFFFF" d="M40.384,9H10.229C4.464,9,2,13.712,2,19.479V30.52C2,36.287,4.709,41,10.477,41h29.666
		C45.905,41,48,36.287,48,30.52V19.479C48,13.712,46.152,9,40.384,9z M20,31.771v-13.01l12.463,6.506L20,31.771z"/>
</g>
</svg>
